# xmcd
# Copyright (C) 1995-1998 Ti Kan
#
# Track frame offsets:
#       182
#       23732
#       42757
#       59820
#       85670
#       105620
#       124357
#       146970
#       166532
#       183845
#       201107
#       223957
#
# Disc length: 3215 seconds
#
# Revision: 0
# Processed by: cddbd v1.5.2PL0 Copyright (c) Steve Scherf et al.
# Submitted via: CD-Import v1.0
#
DISCID=ac0c8d0c
DTITLE=Stereo Mc's - Connected
DYEAR=1992
DGENRE=
TTITLE0=Connected
TTITLE1=Ground Level
TTITLE2=Everything
TTITLE3=Fade Away
TTITLE4=All Night Long
TTITLE5=Step It Up
TTITLE6=Playing With Fire
TTITLE7=Pressure
TTITLE8=Chicken Shake
TTITLE9=Creation
TTITLE10=Don't Let Up
TTITLE11=The End
EXTD=
EXTT0=
EXTT1=
EXTT2=
EXTT3=
EXTT4=
EXTT5=
EXTT6=
EXTT7=
EXTT8=
EXTT9=
EXTT10=
EXTT11=
PLAYORDER=
